<mxfile host="app.diagrams.net" agent="Mozilla/5.0 (Windows NT 10.0; Win64; x64) AppleWebKit/537.36 (KHTML, like Gecko) Chrome/128.0.0.0 Safari/537.36" version="24.7.16">
  <diagram name="第 1 页" id="1rLEe2a38FNa8UdqImIX">
    <mxGraphModel dx="2207" dy="1716" grid="1" gridSize="10" guides="1" tooltips="1" connect="1" arrows="1" fold="1" page="1" pageScale="1" pageWidth="827" pageHeight="1169" math="0" shadow="0">
      <root>
        <mxCell id="0" />
        <mxCell id="1" parent="0" />
        <mxCell id="YrS4iogLUt7k2Kigd2pW-11" value="" style="rounded=1;whiteSpace=wrap;html=1;labelBackgroundColor=none;fillColor=#d5e8d4;strokeColor=#82b366;" vertex="1" parent="1">
          <mxGeometry x="80" y="116" width="560" height="100" as="geometry" />
        </mxCell>
        <mxCell id="YrS4iogLUt7k2Kigd2pW-3" value="CCF(Common Clock Framework)" style="rounded=1;whiteSpace=wrap;html=1;labelBackgroundColor=none;fillColor=#ffe6cc;strokeColor=#d79b00;" vertex="1" parent="1">
          <mxGeometry x="400" y="141" width="190" height="50" as="geometry" />
        </mxCell>
        <mxCell id="YrS4iogLUt7k2Kigd2pW-7" value="Reset Framework core" style="rounded=1;whiteSpace=wrap;html=1;labelBackgroundColor=none;fillColor=#ffe6cc;strokeColor=#d79b00;" vertex="1" parent="1">
          <mxGeometry x="120" y="141" width="190" height="50" as="geometry" />
        </mxCell>
        <mxCell id="YrS4iogLUt7k2Kigd2pW-10" value="" style="rounded=1;whiteSpace=wrap;html=1;labelBackgroundColor=none;fillColor=#f5f5f5;strokeColor=#666666;gradientColor=#b3b3b3;" vertex="1" parent="1">
          <mxGeometry x="80" y="1" width="560" height="100" as="geometry" />
        </mxCell>
        <mxCell id="YrS4iogLUt7k2Kigd2pW-4" value="UART driver" style="rounded=1;whiteSpace=wrap;html=1;labelBackgroundColor=none;fillColor=#F2CC8F;strokeColor=#E07A5F;fontColor=#393C56;" vertex="1" parent="1">
          <mxGeometry x="270" y="21" width="200" height="40" as="geometry" />
        </mxCell>
        <mxCell id="YrS4iogLUt7k2Kigd2pW-5" value="UART driver" style="rounded=1;whiteSpace=wrap;html=1;labelBackgroundColor=none;fillColor=#F2CC8F;strokeColor=#E07A5F;fontColor=#393C56;" vertex="1" parent="1">
          <mxGeometry x="260" y="31" width="200" height="40" as="geometry" />
        </mxCell>
        <mxCell id="YrS4iogLUt7k2Kigd2pW-6" value="UART driver" style="rounded=1;whiteSpace=wrap;html=1;labelBackgroundColor=none;fillColor=#F2CC8F;strokeColor=#E07A5F;fontColor=#393C56;" vertex="1" parent="1">
          <mxGeometry x="250" y="41" width="200" height="40" as="geometry" />
        </mxCell>
        <mxCell id="YrS4iogLUt7k2Kigd2pW-28" value="" style="endArrow=none;html=1;rounded=0;strokeColor=#E07A5F;fontColor=#393C56;fillColor=#F2CC8F;entryX=0.75;entryY=1;entryDx=0;entryDy=0;" edge="1" parent="1" source="YrS4iogLUt7k2Kigd2pW-3" target="YrS4iogLUt7k2Kigd2pW-9">
          <mxGeometry width="50" height="50" relative="1" as="geometry">
            <mxPoint x="510" y="50" as="sourcePoint" />
            <mxPoint x="560" as="targetPoint" />
          </mxGeometry>
        </mxCell>
        <mxCell id="YrS4iogLUt7k2Kigd2pW-12" value="" style="rounded=1;whiteSpace=wrap;html=1;labelBackgroundColor=none;fillColor=#dae8fc;strokeColor=#6c8ebf;" vertex="1" parent="1">
          <mxGeometry x="80" y="240" width="560" height="100" as="geometry" />
        </mxCell>
        <mxCell id="YrS4iogLUt7k2Kigd2pW-1" value="Hardware" style="rounded=1;whiteSpace=wrap;html=1;labelBackgroundColor=none;fillColor=#f5f5f5;strokeColor=#666666;fontColor=#333333;" vertex="1" parent="1">
          <mxGeometry x="60" y="371" width="600" height="60" as="geometry" />
        </mxCell>
        <mxCell id="YrS4iogLUt7k2Kigd2pW-2" value="Axera Clock driver" style="rounded=1;whiteSpace=wrap;html=1;labelBackgroundColor=none;fillColor=#e6d0de;strokeColor=#996185;gradientColor=#d5739d;" vertex="1" parent="1">
          <mxGeometry x="400" y="271" width="190" height="40" as="geometry" />
        </mxCell>
        <mxCell id="YrS4iogLUt7k2Kigd2pW-8" value="Axera Reset driver" style="rounded=1;whiteSpace=wrap;html=1;labelBackgroundColor=none;fillColor=#e6d0de;strokeColor=#996185;gradientColor=#d5739d;" vertex="1" parent="1">
          <mxGeometry x="120" y="271" width="190" height="40" as="geometry" />
        </mxCell>
        <mxCell id="YrS4iogLUt7k2Kigd2pW-9" value="User Terminal" style="rounded=1;whiteSpace=wrap;html=1;labelBackgroundColor=none;fillColor=#fff2cc;strokeColor=#d6b656;gradientColor=#ffd966;" vertex="1" parent="1">
          <mxGeometry x="175" y="-120" width="425" height="50" as="geometry" />
        </mxCell>
        <mxCell id="YrS4iogLUt7k2Kigd2pW-13" value="Provider Driver" style="text;html=1;align=center;verticalAlign=middle;whiteSpace=wrap;rounded=1;labelBackgroundColor=none;fontColor=#393C56;" vertex="1" parent="1">
          <mxGeometry x="-20" y="240" width="100" height="30" as="geometry" />
        </mxCell>
        <mxCell id="YrS4iogLUt7k2Kigd2pW-14" value="" style="endArrow=none;html=1;rounded=1;dashed=1;labelBackgroundColor=none;strokeColor=#E07A5F;fontColor=default;" edge="1" parent="1">
          <mxGeometry width="50" height="50" relative="1" as="geometry">
            <mxPoint x="-80" y="230" as="sourcePoint" />
            <mxPoint x="680" y="230" as="targetPoint" />
          </mxGeometry>
        </mxCell>
        <mxCell id="YrS4iogLUt7k2Kigd2pW-15" value="Framework Core" style="text;html=1;align=center;verticalAlign=middle;whiteSpace=wrap;rounded=1;labelBackgroundColor=none;fontColor=#393C56;" vertex="1" parent="1">
          <mxGeometry x="-30" y="151" width="100" height="30" as="geometry" />
        </mxCell>
        <mxCell id="YrS4iogLUt7k2Kigd2pW-16" value="Consumer Driver" style="text;html=1;align=center;verticalAlign=middle;whiteSpace=wrap;rounded=1;labelBackgroundColor=none;fontColor=#393C56;" vertex="1" parent="1">
          <mxGeometry x="-30" y="46" width="100" height="30" as="geometry" />
        </mxCell>
        <mxCell id="YrS4iogLUt7k2Kigd2pW-17" value="" style="endArrow=none;html=1;rounded=1;dashed=1;labelBackgroundColor=none;strokeColor=#E07A5F;fontColor=default;" edge="1" parent="1">
          <mxGeometry width="50" height="50" relative="1" as="geometry">
            <mxPoint x="-80" y="110" as="sourcePoint" />
            <mxPoint x="685" y="110" as="targetPoint" />
          </mxGeometry>
        </mxCell>
        <mxCell id="YrS4iogLUt7k2Kigd2pW-18" value="" style="endArrow=none;html=1;rounded=1;labelBackgroundColor=none;strokeColor=#E07A5F;fontColor=default;" edge="1" parent="1">
          <mxGeometry width="50" height="50" relative="1" as="geometry">
            <mxPoint x="-120" y="350" as="sourcePoint" />
            <mxPoint x="680" y="350" as="targetPoint" />
          </mxGeometry>
        </mxCell>
        <mxCell id="YrS4iogLUt7k2Kigd2pW-20" value="Physical HW" style="text;html=1;align=center;verticalAlign=middle;whiteSpace=wrap;rounded=1;labelBackgroundColor=none;fontColor=#393C56;" vertex="1" parent="1">
          <mxGeometry x="-110" y="360" width="90" height="30" as="geometry" />
        </mxCell>
        <mxCell id="YrS4iogLUt7k2Kigd2pW-21" value="Kernel space" style="text;html=1;align=center;verticalAlign=middle;whiteSpace=wrap;rounded=1;labelBackgroundColor=none;fontColor=#393C56;" vertex="1" parent="1">
          <mxGeometry x="-110" y="-20" width="90" height="30" as="geometry" />
        </mxCell>
        <mxCell id="YrS4iogLUt7k2Kigd2pW-22" value="User space" style="text;html=1;align=center;verticalAlign=middle;whiteSpace=wrap;rounded=1;labelBackgroundColor=none;fontColor=#393C56;" vertex="1" parent="1">
          <mxGeometry x="-110" y="-60" width="90" height="30" as="geometry" />
        </mxCell>
        <mxCell id="YrS4iogLUt7k2Kigd2pW-25" value="" style="endArrow=none;html=1;rounded=1;labelBackgroundColor=none;strokeColor=#E07A5F;fontColor=default;" edge="1" parent="1" target="YrS4iogLUt7k2Kigd2pW-24">
          <mxGeometry width="50" height="50" relative="1" as="geometry">
            <mxPoint x="-110" y="-20" as="sourcePoint" />
            <mxPoint x="680" y="-20" as="targetPoint" />
          </mxGeometry>
        </mxCell>
        <mxCell id="YrS4iogLUt7k2Kigd2pW-27" value="debugfs" style="text;html=1;align=center;verticalAlign=middle;whiteSpace=wrap;rounded=0;fontColor=#393C56;" vertex="1" parent="1">
          <mxGeometry x="501" y="-50" width="60" height="30" as="geometry" />
        </mxCell>
        <mxCell id="YrS4iogLUt7k2Kigd2pW-24" value="" style="ellipse;whiteSpace=wrap;html=1;aspect=fixed;strokeColor=#FF33FF;fillColor=#FFFFFF;gradientColor=none;" vertex="1" parent="1">
          <mxGeometry x="489" y="-26" width="10" height="10" as="geometry" />
        </mxCell>
        <mxCell id="YrS4iogLUt7k2Kigd2pW-19" value="" style="endArrow=none;html=1;rounded=1;labelBackgroundColor=none;strokeColor=#E07A5F;fontColor=default;" edge="1" parent="1" source="YrS4iogLUt7k2Kigd2pW-24">
          <mxGeometry width="50" height="50" relative="1" as="geometry">
            <mxPoint x="-110" y="-20" as="sourcePoint" />
            <mxPoint x="680" y="-20" as="targetPoint" />
          </mxGeometry>
        </mxCell>
        <mxCell id="YrS4iogLUt7k2Kigd2pW-30" value="" style="endArrow=classic;startArrow=classic;html=1;rounded=0;strokeColor=#E07A5F;fontColor=#393C56;fillColor=#F2CC8F;entryX=0.5;entryY=1;entryDx=0;entryDy=0;exitX=0.5;exitY=0;exitDx=0;exitDy=0;" edge="1" parent="1" source="YrS4iogLUt7k2Kigd2pW-1" target="YrS4iogLUt7k2Kigd2pW-12">
          <mxGeometry width="50" height="50" relative="1" as="geometry">
            <mxPoint x="280" y="400" as="sourcePoint" />
            <mxPoint x="330" y="350" as="targetPoint" />
          </mxGeometry>
        </mxCell>
        <mxCell id="YrS4iogLUt7k2Kigd2pW-31" value="" style="endArrow=classic;startArrow=classic;html=1;rounded=0;strokeColor=#E07A5F;fontColor=#393C56;fillColor=#F2CC8F;entryX=0.5;entryY=1;entryDx=0;entryDy=0;exitX=0.5;exitY=0;exitDx=0;exitDy=0;" edge="1" parent="1" source="YrS4iogLUt7k2Kigd2pW-8" target="YrS4iogLUt7k2Kigd2pW-7">
          <mxGeometry width="50" height="50" relative="1" as="geometry">
            <mxPoint x="190" y="270" as="sourcePoint" />
            <mxPoint x="240" y="220" as="targetPoint" />
          </mxGeometry>
        </mxCell>
        <mxCell id="YrS4iogLUt7k2Kigd2pW-32" value="" style="endArrow=classic;startArrow=classic;html=1;rounded=0;strokeColor=#E07A5F;fontColor=#393C56;fillColor=#F2CC8F;entryX=0.5;entryY=1;entryDx=0;entryDy=0;exitX=0.5;exitY=0;exitDx=0;exitDy=0;" edge="1" parent="1" source="YrS4iogLUt7k2Kigd2pW-2" target="YrS4iogLUt7k2Kigd2pW-3">
          <mxGeometry width="50" height="50" relative="1" as="geometry">
            <mxPoint x="225" y="281" as="sourcePoint" />
            <mxPoint x="225" y="201" as="targetPoint" />
          </mxGeometry>
        </mxCell>
        <mxCell id="YrS4iogLUt7k2Kigd2pW-33" value="" style="endArrow=classic;html=1;rounded=0;strokeColor=#E07A5F;fontColor=#393C56;fillColor=#F2CC8F;exitX=0;exitY=0.5;exitDx=0;exitDy=0;entryX=0.5;entryY=0;entryDx=0;entryDy=0;" edge="1" parent="1" source="YrS4iogLUt7k2Kigd2pW-6" target="YrS4iogLUt7k2Kigd2pW-7">
          <mxGeometry width="50" height="50" relative="1" as="geometry">
            <mxPoint x="440" y="170" as="sourcePoint" />
            <mxPoint x="490" y="120" as="targetPoint" />
            <Array as="points">
              <mxPoint x="215" y="61" />
            </Array>
          </mxGeometry>
        </mxCell>
        <mxCell id="YrS4iogLUt7k2Kigd2pW-36" value="" style="endArrow=classic;html=1;rounded=0;strokeColor=#E07A5F;fontColor=#393C56;fillColor=#F2CC8F;exitX=0.907;exitY=1.024;exitDx=0;exitDy=0;exitPerimeter=0;entryX=0.172;entryY=-0.004;entryDx=0;entryDy=0;entryPerimeter=0;" edge="1" parent="1" source="YrS4iogLUt7k2Kigd2pW-6" target="YrS4iogLUt7k2Kigd2pW-3">
          <mxGeometry width="50" height="50" relative="1" as="geometry">
            <mxPoint x="400" y="170" as="sourcePoint" />
            <mxPoint x="450" y="120" as="targetPoint" />
          </mxGeometry>
        </mxCell>
      </root>
    </mxGraphModel>
  </diagram>
</mxfile>
